<?xml version="1.0" encoding="utf-8"?>
<!-- Generator: Adobe Illustrator 23.0.5, SVG Export Plug-In . SVG Version: 6.00 Build 0)  -->
<svg version="1.1" id="Capa_1" xmlns="http://www.w3.org/2000/svg" xmlns:xlink="http://www.w3.org/1999/xlink" x="0px" y="0px"
	 viewBox="0 0 2065 902" style="enable-background:new 0 0 2065 902;" xml:space="preserve">
<style type="text/css">
	.st0{fill:#1D70B7;}
	.st1{fill:#FFFFFF;}
</style>
<g>
	<g>
		<path class="st0" d="M235.82,494.79c0-133.36,107.02-242.42,237.89-242.42c88.97,0,166.98,50.58,208.24,123.51
			c-40.62,21.02-43.84,22.99-88.97,45.99c-23.86-42.05-67.7-68.99-119.28-68.99c-77.36,0-139.26,63.07-139.26,141.9
			c0,79.5,61.9,142.06,139.26,142.06c51.58,0,103.15-26.44,121.85-70.8h-10.31c-20.64,0-67.74,0.5-93.53,0.5
			c-12.25,0-18.09-0.16-18.09-0.81v-86.72c62.57,0,154.16,0.64,232.88,0.66c0.92-9.44,1.42-19,1.42-28.68
			c0-157.52-125.35-285.27-279.93-285.27c-154.59,0-279.94,127.75-279.94,285.27c0,157.52,125.35,285.27,279.95,285.27
			c5.07,0,10.12-0.14,15.11-0.41C326.56,720.44,235.82,618.2,235.82,494.79"/>
		<path class="st1" d="M706.5,479.68c-78.71-0.01-170.3-0.66-232.88-0.66v86.72c0,0.65,5.84,0.81,18.09,0.81
			c25.79,0,72.89-0.5,93.53-0.5h10.31c-18.69,44.36-70.27,70.8-121.85,70.8c-77.36,0-139.26-62.49-139.26-141.98
			c0-78.84,61.9-141.94,139.26-141.94c51.58,0,95.42,26.91,119.28,68.96c45.12-23,48.35-24.98,88.97-46
			c-41.26-72.92-119.27-123.51-208.24-123.51c-130.87,0-237.89,109.05-237.89,242.41c0,123.41,90.72,225.65,207.27,241.06
			C581.27,728.36,692.87,618.71,706.5,479.68"/>
	</g>
	<rect x="776.99" y="629.82" class="st1" width="1139.96" height="6.93"/>
	<path class="st1" d="M966.5,340.48c-16.6,31.88-50.33,53.23-88.15,53.23c-55.23,0-100.39-46.02-100.39-102.58
		c0-56.28,45.16-102.3,100.39-102.3c37.54,0,70.46,21.35,87.87,52.12c-17.14,8.87-18.5,9.7-37.55,19.41
		c-10.07-17.75-28.56-29.11-50.33-29.11c-32.65,0-58.76,26.61-58.76,59.88c0,33.54,26.11,59.88,58.76,59.88
		c21.77,0,43.53-11.09,51.42-29.94h-4.35c-8.7,0-28.57,0.28-39.44,0.28c-5.18,0-7.62,0-7.62-0.28v-36.59
		c27.48,0,65.84,0.27,99.3,0.27C977.66,290.58,976.57,327.17,966.5,340.48"/>
	<polygon class="st1" points="995.08,389 995.08,191.61 1036.97,191.61 1036.97,352.4 1136.54,352.4 1136.54,389 	"/>
	<path class="st1" d="M1245.91,392.88c-55.5,0-100.39-45.75-100.39-102.3c0-56.83,44.89-102.58,100.39-102.58
		c55.23,0,100.67,45.75,100.67,102.58C1346.58,347.14,1301.14,392.88,1245.91,392.88 M1186.6,290.58
		c0,32.99,26.93,60.44,59.31,60.44c32.37,0,58.76-27.44,58.76-60.44c0-32.99-26.39-60.72-58.76-60.72
		C1213.53,229.86,1186.6,257.59,1186.6,290.58"/>
	<path class="st1" d="M1369.98,192.44h91.41c37,0,62.03,12.2,62.03,49.07c0,19.97-8.97,32.72-26.39,41.31
		c23.94,6.93,35.64,25.51,35.64,50.18c0,40.2-33.46,57.39-68.56,57.39h-94.14V192.44z M1412.69,272.56h43.26
		c15.24,0,26.12-6.93,26.12-23.57c0-18.57-14.14-22.73-29.38-22.73h-40V272.56z M1412.69,356.56h45.71
		c16.6,0,31.55-5.55,31.55-26.06c0-20.24-12.25-28.28-30.74-28.28h-46.52V356.56z"/>
	<path class="st1" d="M1541.92,390.38l88.15-197.67h42.99l86.79,197.67h-41.36l-19.04-43.8h-98.21l-20.41,43.8H1541.92z
		 M1652.11,229.86l-32.64,76.52h64.48l-31.56-76.52H1652.11z"/>
	<polygon class="st1" points="1774.82,389 1774.82,191.61 1816.71,191.61 1816.71,352.4 1916.29,352.4 1916.29,389 	"/>
	<polygon class="st1" points="777.08,421.95 826.48,421.95 866.43,499.67 905.65,421.95 955.77,421.95 955.77,598.12 920.18,598.12 
		920.18,473.52 919.7,473.52 881.2,553.71 851.9,553.71 813.64,474.75 813.16,474.75 813.16,598.12 777.08,598.12 	"/>
	<polygon class="st1" points="1025.27,527.8 1025.27,565.31 1122.85,565.31 1122.85,597.88 988.47,597.88 988.47,421.21 
		1114.62,421.21 1114.62,453.78 1025.27,453.78 1025.27,493.5 1104.21,493.5 1104.21,527.8 	"/>
	<path class="st1" d="M1149.98,421.95h74.58c44.79,0,78.45,28.87,78.45,87.1c0,51.07-25.67,89.07-78.45,89.07h-74.58V421.95z
		 M1187.99,565.55h33.9c22.03,0,43.09-13.82,43.09-52.8c0-35.53-12.34-58.23-49.87-58.23h-27.12V565.55z"/>
	<rect x="1329.64" y="421.95" class="st1" width="38.02" height="176.17"/>
	<path class="st1" d="M1479.76,598.62c-48.43,0-87.65-39.97-87.65-89.32c0-48.86,39.23-89.32,87.65-89.32
		c33.17,0,61.26,18.75,76.03,45.65c-14.77,7.9-15.98,8.64-32.45,16.78c-8.47-15.05-24.94-25.41-43.58-25.41
		c-28.33,0-51.33,23.69-51.33,52.31c0,28.87,23.01,52.31,51.33,52.31c19.37,0,36.32-10.61,45.04-27.38
		c16.46,8.63,16.95,9.62,32.44,16.77C1542.48,579.37,1513.9,598.62,1479.76,598.62"/>
	<path class="st1" d="M1564.52,598.12l78.45-175.92h38.26l77.24,175.92h-36.8l-16.95-38.99h-87.41l-18.16,38.99H1564.52z
		 M1662.58,455.26l-29.05,68.1h57.38l-28.09-68.1H1662.58z"/>
	<polygon class="st1" points="801.38,712.96 790.79,712.96 776.9,669.4 786.6,669.4 796.12,700.03 796.24,700.03 805.88,669.4 
		815.58,669.4 	"/>
	<polygon class="st1" points="826.82,695.58 826.82,704.84 850.95,704.84 850.95,712.9 817.72,712.9 817.72,669.22 848.91,669.22 
		848.91,677.27 826.82,677.27 826.82,687.09 846.34,687.09 846.34,695.58 	"/>
	<polygon class="st1" points="864.53,682.88 864.53,713.02 856.33,713.02 856.33,669.28 867.1,669.28 886.2,696.49 886.2,669.28 
		894.16,669.28 894.16,713.02 886.2,713.02 	"/>
	<polygon class="st1" points="911.94,677.46 898.35,677.46 898.35,669.46 934.8,669.46 934.8,677.52 921.34,677.52 921.34,712.96 
		911.94,712.96 	"/>
	<path class="st1" d="M931.27,712.96l19.39-43.49h9.46l19.1,43.49h-9.11l-4.19-9.64h-21.61l-4.49,9.64H931.27z M955.52,677.64
		l-7.19,16.84h14.18l-6.94-16.84H955.52z"/>
	<path class="st1" d="M1000.94,669.4h18.44c11.07,0,19.39,7.14,19.39,21.53c0,12.63-6.35,22.02-19.39,22.02h-18.44V669.4z
		 M1010.34,704.91h8.38c5.45,0,10.65-3.42,10.65-13.06c0-8.78-3.05-14.4-12.33-14.4h-6.71V704.91z"/>
	<polygon class="st1" points="1052.9,695.58 1052.9,704.84 1077.02,704.84 1077.02,712.9 1043.8,712.9 1043.8,669.22 
		1074.98,669.22 1074.98,677.27 1052.9,677.27 1052.9,687.09 1072.41,687.09 1072.41,695.58 	"/>
	<path class="st1" d="M1100.95,669.4h19.28c10.72,0,14.79,6.9,14.79,13.97c0,7.08-4.07,13.97-14.79,13.97h-9.87v15.61h-9.4V669.4z
		 M1110.35,689.9h7.3c4.31,0,8.26-0.97,8.26-6.52c0-5.55-3.95-6.53-8.26-6.53h-7.3V689.9z"/>
	<path class="st1" d="M1164.82,696.85l11.97,16.17h-11.49l-10.77-15.68h-4.61v15.68h-9.46V669.4h19.27
		c10.77,0,14.91,6.9,14.91,13.97c0,5.92-3.05,11.89-10.18,13.48H1164.82z M1149.92,676.85v13.11h7.3c4.48,0,8.2-1.03,8.2-6.59
		c0-5.67-3.71-6.53-8.2-6.53H1149.92z"/>
	<path class="st1" d="M1202.29,713.51c-12.21,0-22.09-10.06-22.09-22.51c0-12.51,9.88-22.57,22.09-22.57
		c12.15,0,22.16,10.06,22.16,22.57C1224.44,703.44,1214.44,713.51,1202.29,713.51 M1189.24,691c0,7.26,5.92,13.3,13.05,13.3
		s12.93-6.04,12.93-13.3c0-7.26-5.8-13.36-12.93-13.36S1189.24,683.74,1189.24,691"/>
	<path class="st1" d="M1229.4,669.4h18.44c11.07,0,19.39,7.14,19.39,21.53c0,12.63-6.35,22.02-19.39,22.02h-18.44V669.4z
		 M1238.8,704.91h8.38c5.45,0,10.66-3.42,10.66-13.06c0-8.78-3.05-14.4-12.33-14.4h-6.7V704.91z"/>
	<path class="st1" d="M1309.61,696.49c0,11.77-6.83,17.51-18.26,17.51c-11.56,0-18.2-5.62-18.2-17.51V669.4h9.4v27.08
		c0,4.76,1.2,9.46,8.8,9.46c6.7,0,8.86-2.93,8.86-9.46V669.4h9.4V696.49z"/>
	<path class="st1" d="M1336.66,713.08c-11.97,0-21.67-9.88-21.67-22.09c0-12.08,9.7-22.08,21.67-22.08c8.2,0,15.15,4.64,18.8,11.28
		c-3.65,1.95-3.95,2.13-8.02,4.15c-2.09-3.72-6.17-6.29-10.78-6.29c-7,0-12.69,5.86-12.69,12.93c0,7.14,5.69,12.93,12.69,12.93
		c4.79,0,8.98-2.62,11.14-6.77c4.07,2.13,4.19,2.38,8.02,4.14C1352.17,708.32,1345.1,713.08,1336.66,713.08"/>
	<polygon class="st1" points="1372.04,677.46 1358.44,677.46 1358.44,669.46 1394.91,669.46 1394.91,677.52 1381.43,677.52 
		1381.43,712.96 1372.04,712.96 	"/>
	<path class="st1" d="M1418.9,713.51c-12.21,0-22.09-10.06-22.09-22.51c0-12.51,9.88-22.57,22.09-22.57
		c12.15,0,22.15,10.06,22.15,22.57C1441.05,703.44,1431.06,713.51,1418.9,713.51 M1405.86,691c0,7.26,5.92,13.3,13.05,13.3
		c7.12,0,12.93-6.04,12.93-13.3c0-7.26-5.81-13.36-12.93-13.36C1411.78,677.64,1405.86,683.74,1405.86,691"/>
	<path class="st1" d="M1452.42,700.03c0.96,5.74,5.98,6.52,9.46,6.52c3.3,0,8.32-0.97,8.32-5.43c0-9.27-25.44-3.29-25.44-19.58
		c0-8.97,8.26-13.18,15.98-13.18c8.91,0,17.12,3.96,17.12,14.03l-9.1-1.34c-1.14-5.06-5.51-5.25-8.44-5.25
		c-2.99,0-6.47,1.28-6.47,4.95c0,3.23,2.04,3.96,12.75,6.58c3.17,0.8,12.69,2.81,12.69,12.69c0,7.99-6.11,13.97-17.78,13.97
		c-9.58,0-18.19-4.76-18.19-15.49L1452.42,700.03z"/>
	<polygon class="st1" points="1503.18,669.4 1515.39,669.4 1525.27,688.62 1534.96,669.4 1547.36,669.4 1547.36,712.96 
		1538.56,712.96 1538.56,682.15 1538.44,682.15 1528.92,701.98 1521.68,701.98 1512.22,682.46 1512.1,682.46 1512.1,712.96 
		1503.18,712.96 	"/>
	<polygon class="st1" points="1564.05,695.58 1564.05,704.84 1588.17,704.84 1588.17,712.9 1554.95,712.9 1554.95,669.22 
		1586.14,669.22 1586.14,677.27 1564.05,677.27 1564.05,687.09 1583.56,687.09 1583.56,695.58 	"/>
	<path class="st1" d="M1594.39,669.4h18.44c11.07,0,19.4,7.14,19.4,21.53c0,12.63-6.35,22.02-19.4,22.02h-18.44V669.4z
		 M1603.8,704.91h8.38c5.45,0,10.66-3.42,10.66-13.06c0-8.78-3.05-14.4-12.33-14.4h-6.71V704.91z"/>
	<rect x="1638.33" y="669.4" class="st1" width="9.4" height="43.56"/>
	<path class="st1" d="M1674.96,713.08c-11.97,0-21.67-9.88-21.67-22.09c0-12.08,9.69-22.08,21.67-22.08c8.2,0,15.14,4.64,18.8,11.28
		c-3.65,1.95-3.94,2.13-8.01,4.15c-2.1-3.72-6.17-6.29-10.78-6.29c-7.01,0-12.69,5.86-12.69,12.93c0,7.14,5.68,12.93,12.69,12.93
		c4.79,0,8.98-2.62,11.13-6.77c4.07,2.13,4.19,2.38,8.03,4.14C1690.47,708.32,1683.4,713.08,1674.96,713.08"/>
	<rect x="1699.5" y="669.4" class="st1" width="9.4" height="43.56"/>
	<polygon class="st1" points="1724.11,682.88 1724.11,713.02 1715.9,713.02 1715.9,669.28 1726.68,669.28 1745.77,696.49 
		1745.77,669.28 1753.73,669.28 1753.73,713.02 1745.77,713.02 	"/>
	<path class="st1" d="M1756.6,712.96l19.39-43.49h9.46l19.1,43.49h-9.1l-4.19-9.64h-21.62l-4.49,9.64H1756.6z M1780.84,677.64
		l-7.18,16.84h14.19l-6.95-16.84H1780.84z"/>
	<polygon class="st1" points="1807.65,712.66 1807.65,669.22 1816.88,669.22 1816.88,704.6 1838.79,704.6 1838.79,712.66 	"/>
	<polygon class="st1" points="1851.65,695.58 1851.65,704.84 1875.77,704.84 1875.77,712.9 1842.55,712.9 1842.55,669.22 
		1873.74,669.22 1873.74,677.27 1851.65,677.27 1851.65,687.09 1871.17,687.09 1871.17,695.58 	"/>
	<path class="st1" d="M1888.4,700.03c0.96,5.74,5.98,6.52,9.46,6.52c3.29,0,8.32-0.97,8.32-5.43c0-9.27-25.45-3.29-25.45-19.58
		c0-8.97,8.26-13.18,15.99-13.18c8.92,0,17.12,3.96,17.12,14.03l-9.11-1.34c-1.13-5.06-5.5-5.25-8.43-5.25c-3,0-6.46,1.28-6.46,4.95
		c0,3.23,2.04,3.96,12.75,6.58c3.17,0.8,12.69,2.81,12.69,12.69c0,7.99-6.11,13.97-17.78,13.97c-9.57,0-18.2-4.76-18.2-15.49
		L1888.4,700.03z"/>
	<path class="st1" d="M1793.08,577.42c1.55,9.3,9.66,10.59,15.26,10.59c5.31,0,13.41-1.58,13.41-8.8c0-15.04-41.03-5.35-41.03-31.76
		c0-14.55,13.32-21.37,25.78-21.37c14.38,0,27.61,6.43,27.61,22.75l-14.68-2.17c-1.84-8.21-8.89-8.51-13.61-8.51
		c-4.83,0-10.43,2.08-10.43,8.02c0,5.24,3.28,6.43,20.56,10.68c5.12,1.29,20.47,4.55,20.47,20.58c0,12.96-9.85,22.66-28.67,22.66
		c-15.45,0-29.34-7.72-29.34-25.13L1793.08,577.42z"/>
	<path class="st1" d="M1838.36,598.39l31.28-70.53h15.25l30.8,70.53h-14.68l-6.75-15.62h-34.85l-7.25,15.62H1838.36z
		 M1877.46,541.11l-11.58,27.3h22.88l-11.2-27.3H1877.46z"/>
</g>
</svg>

