<?xml version="1.0" encoding="utf-8"?>
<!-- Generator: Adobe Illustrator 16.0.4, SVG Export Plug-In . SVG Version: 6.00 Build 0)  -->
<!DOCTYPE svg PUBLIC "-//W3C//DTD SVG 1.1//EN" "http://www.w3.org/Graphics/SVG/1.1/DTD/svg11.dtd">
<svg version="1.1" id="Layer_1" xmlns="http://www.w3.org/2000/svg" xmlns:xlink="http://www.w3.org/1999/xlink" x="0px" y="0px"
	 width="1200px" height="900px" viewBox="0 0 1200 900" enable-background="new 0 0 1200 900" xml:space="preserve">
<g>
	<path fill="#001F5B" d="M659.413,680.571c-71.936-9.532-264.514-15.202-428.976,192.548c0,0-52.426-556.995,501.13-535.675
		c0,0,344.4,21.061,461.13-258.867c0,0,65.603,658.748-503.438,604.046C689.259,682.623,677.814,683.084,659.413,680.571z"/>
	<g>
		<g>
			<g>
				<g>
					<g>
						<g>
							<path fill="#001F5B" d="M55.511,277.047c-25.298-21.837-41.253-57.758-47.625-95.146
								C-6.212,98.262,32.8,39.801,93.071,28.786c26.227-4.828,56.876-1.247,80.802,19.628
								c25.656,22.155,41.538,59.356,47.977,97.048c5.889,34.96,2.891,73.673-12.58,101.372
								c-15.636,28.144-44.257,45.404-70.775,50.252C111.751,302.04,79.775,297.929,55.511,277.047z M165.577,223.625
								c2.108-16.439,0.411-32.891-1.181-49.86c-2.241-24.642-11.187-55.537-22.188-77.387
								c-10.199-20.351-30.192-38.746-49.051-35.325c-15.113,2.878-24.648,24.96-27.586,43.183
								c-2.593,16.883,0.066,34.304,2.274,51.525c3.402,26.717,11.24,50.868,21.346,71.126c9.994,20.232,28.541,43.382,47.228,39.98
								C152.115,263.963,163.515,243.254,165.577,223.625z"/>
							<path fill="#001F5B" d="M377.618,60.271h74.926c-9.648,16.545-8.939,33.919-8.939,33.919v199.938h-54.542v-186.53
								l-51.1,139.992l-50.04-139.992v186.53h-22.778V104.674c0,0,2.573-27.857-8.846-44.402h79.973c0,0-3.09,14.41,0.391,27.745
								l2.652,8.886l15.729,47.632l19.125-50.49C374.169,94.044,380.86,79.887,377.618,60.271z"/>
							<path fill="#001F5B" d="M495.448,60.271h72.167c-9.801,17.208-8.693,33.919-8.693,33.919v199.938H504.36V91.876
								C503.604,73.421,495.448,60.271,495.448,60.271z"/>
							<path fill="#001F5B" d="M760.717,92.459v201.669l-119.945-191.53v191.53h-22.68V92.148c0,0,1.016-14.668-8.806-31.876h85.185
								c-0.219,18.421,9.834,33.919,9.834,33.919l33.833,55.271V92.035c-0.544-18.614-8.886-31.764-8.886-31.764h40.57
								C769.823,60.271,761.149,73.315,760.717,92.459z"/>
							<path fill="#001F5B" d="M825.538,60.271c-4.927,0-9.642-1.108-13.727-3.196l0.014,0.663l-3.588,60.185
								c6.837-13.335,18.21-28.667,46.923-33.846v210.104h54.556V84.024c5.186,0.232,30.152,2.984,47.028,33.68l-3.481-59.966
								v-0.663c-4.118,2.088-8.713,3.196-13.7,3.196H825.538z"/>
						</g>
					</g>
				</g>
			</g>
		</g>
	</g>
	<path fill="#FFFFFF" d="M483.015,627.303h-20.073l58.063-199.654c1.797-9.324,3.587-13.624,4.304-20.076
		c0.358-10.036-3.587-14.698-3.587-14.698h49.469c0,0-4.297,6.098-2.858,15.772c0.358,4.3,1.067,9.678,2.148,13.627l53.05,205.028
		h-31.187l-12.911-48.027h-83.507L483.015,627.303z M538.929,419.403l-38.349,141.583h75.271L538.929,419.403z"/>
	<path fill="#FFFFFF" d="M648.795,393.236l94.992,0.358c28.316,0,37.991,12.191,38.349,36.203
		c0.365,34.055-47.672,65.239-47.672,65.239l57.705,132.267h-32.254l-53.408-118.644l-19.715,8.239v110.049h-29.038V438.401
		C657.754,438.401,659.551,412.231,648.795,393.236z M686.792,500.41c19.356-7.162,66.312-29.39,66.312-62.37
		c0-25.448-16.485-28.319-32.261-28.319c-7.526,0-25.451,0-30.471,7.891c-2.858,4.3-3.581,15.772-3.581,22.222V500.41z"/>
	<path fill="#FFFFFF" d="M935.949,393.236c3.945-0.716,10.397-1.075,17.207-3.584l3.588,51.259
		c-9.682-18.282-23.302-30.822-57.002-29.035v215.426h-28.667V411.876c-26.89-1.433-45.172,7.526-56.638,29.396l3.588-51.26
		c6.804,2.507,13.256,2.861,18.992,3.223H935.949z"/>
</g>
</svg>
